<?xml version="1.0" encoding="UTF-8" standalone="no"?>
<!DOCTYPE svg PUBLIC "-//W3C//DTD SVG 1.1//EN"
 "http://www.w3.org/Graphics/SVG/1.1/DTD/svg11.dtd">
<!-- Generated by graphviz version 2.43.0 (0)
 -->
<!-- Title: %3 Pages: 1 -->
<svg width="359pt" height="250pt"
 viewBox="0.00 0.00 358.98 249.79" xmlns="http://www.w3.org/2000/svg" xmlns:xlink="http://www.w3.org/1999/xlink">
<g id="graph0" class="graph" transform="scale(1 1) rotate(0) translate(4 245.79)">
<title>%3</title>
<polygon fill="white" stroke="transparent" points="-4,4 -4,-245.79 354.98,-245.79 354.98,4 -4,4"/>
<!-- sums0 -->
<g id="node1" class="node">
<title>sums0</title>
<ellipse fill="none" stroke="black" cx="48.1" cy="-185.9" rx="48.19" ry="48.19"/>
<text text-anchor="middle" x="48.1" y="-182.2" font-family="Times,serif" font-size="14.00">sums[0]</text>
</g>
<!-- results0 -->
<g id="node3" class="node">
<title>results0</title>
<ellipse fill="none" stroke="black" cx="188.09" cy="-185.9" rx="55.79" ry="55.79"/>
<text text-anchor="middle" x="188.09" y="-182.2" font-family="Times,serif" font-size="14.00">results[0]</text>
</g>
<!-- sums0&#45;&gt;results0 -->
<g id="edge1" class="edge">
<title>sums0&#45;&gt;results0</title>
<path fill="none" stroke="black" d="M96.2,-185.9C104.5,-185.9 113.28,-185.9 121.98,-185.9"/>
<polygon fill="black" stroke="black" points="122.11,-189.4 132.11,-185.9 122.11,-182.4 122.11,-189.4"/>
</g>
<!-- sums1 -->
<g id="node2" class="node">
<title>sums1</title>
<ellipse fill="none" stroke="black" cx="48.1" cy="-55.9" rx="48.19" ry="48.19"/>
<text text-anchor="middle" x="48.1" y="-52.2" font-family="Times,serif" font-size="14.00">sums[1]</text>
</g>
<!-- results1 -->
<g id="node4" class="node">
<title>results1</title>
<ellipse fill="none" stroke="black" cx="188.09" cy="-55.9" rx="55.79" ry="55.79"/>
<text text-anchor="middle" x="188.09" y="-52.2" font-family="Times,serif" font-size="14.00">results[1]</text>
</g>
<!-- sums1&#45;&gt;results1 -->
<g id="edge3" class="edge">
<title>sums1&#45;&gt;results1</title>
<path fill="none" stroke="black" d="M96.2,-55.9C104.5,-55.9 113.28,-55.9 121.98,-55.9"/>
<polygon fill="black" stroke="black" points="122.11,-59.4 132.11,-55.9 122.11,-52.4 122.11,-59.4"/>
</g>
<!-- main -->
<g id="node5" class="node">
<title>main</title>
<polygon fill="none" stroke="black" points="350.98,-138.9 279.98,-138.9 279.98,-102.9 350.98,-102.9 350.98,-138.9"/>
<text text-anchor="middle" x="315.48" y="-117.2" font-family="Times,serif" font-size="14.00">QVTally</text>
</g>
<!-- results0&#45;&gt;main -->
<g id="edge2" class="edge">
<title>results0&#45;&gt;main</title>
<path fill="none" stroke="black" d="M237.93,-160.58C248.78,-154.95 260.21,-149.03 270.84,-143.52"/>
<polygon fill="black" stroke="black" points="272.66,-146.51 279.93,-138.8 269.44,-140.3 272.66,-146.51"/>
</g>
<!-- results1&#45;&gt;main -->
<g id="edge4" class="edge">
<title>results1&#45;&gt;main</title>
<path fill="none" stroke="black" d="M237.93,-81.21C248.78,-86.84 260.21,-92.76 270.84,-98.27"/>
<polygon fill="black" stroke="black" points="269.44,-101.49 279.93,-102.99 272.66,-95.28 269.44,-101.49"/>
</g>
</g>
</svg>
